<?xml version="1.0" encoding="UTF-8"?>
<svg id="Layer_1" data-name="Layer 1" xmlns="http://www.w3.org/2000/svg" viewBox="0 0 300.67 300.67">
  <defs>
    <style>
      .cls-1, .cls-2 {
        font-family: Bahnschrift-SemiBoldCondensed, Bahnschrift;
        font-size: 20.88px;
        font-variation-settings: 'wght' 600, 'wdth' 75;
        font-weight: 600;
      }

      .cls-1, .cls-3 {
        fill: #4888c4;
      }

      .cls-2, .cls-4 {
        fill: #192953;
      }

      .cls-5 {
        letter-spacing: 0em;
      }

      .cls-6 {
        letter-spacing: 0em;
      }
    </style>
  </defs>
  <g>
    <path class="cls-4" d="M158.23,96.5l-30.37,51.11-12.19,20.51-.3-7.44-.92-22.69-1.69-41.49h-17.4l-9.35,30.97-.77,2.57-31.58,104.6-7.3,24.18c.13.13.26.25.39.38,4.24,4.03,8.71,7.81,13.39,11.34l6.95-22.6,20.39-66.3,12.37-40.21,1.87,42.76.6,13.77h10.42l2.61-4.49,31.31-53.92-19.46,71.32-2.14,7.85h16.65l33.34-122.22h-16.82Z"/>
    <path class="cls-3" d="M290.7,96.5h-101.53l-4.8,17.57h111.88c-1.49-6.01-3.35-11.87-5.55-17.57ZM207.43,106.59l-2.04,7.48-28.55,104.65h18.33l28.54-104.65,2.04-7.48h-18.32Z"/>
    <path class="cls-4" d="M299.51,131.64h-22.2c.9,6.1,1.36,12.34,1.36,18.69,0,70.77-57.57,128.34-128.33,128.34-31.74,0-60.83-11.58-83.25-30.73-4.61-3.94-8.94-8.2-12.95-12.75-.17-.18-.33-.36-.48-.55l-7.3,24.18c.13.13.26.25.39.38,4.24,4.03,8.71,7.81,13.39,11.34,25.14,18.91,56.38,30.13,90.2,30.13,82.89,0,150.33-67.44,150.33-150.34,0-6.33-.39-12.56-1.16-18.69Z"/>
    <path class="cls-3" d="M150.34,22c51.55,0,96.09,30.55,116.48,74.5,2.62,5.65,4.84,11.52,6.63,17.57h22.8c-1.49-6.01-3.35-11.87-5.55-17.57C269.01,40.12,214.27,0,150.34,0,67.44,0,0,67.44,0,150.33c0,35.88,12.63,68.86,33.67,94.73l8.01-26.5c-12.47-19.78-19.68-43.18-19.68-68.23,0-70.76,57.57-128.33,128.34-128.33Z"/>
  </g>
  <text class="cls-2" transform="translate(144.04 218.7) rotate(.45) scale(1.06 .97) skewX(-13.51)"><tspan x="0" y="0">ic</tspan><tspan class="cls-5" x="12.01" y="0">r</tspan><tspan class="cls-6" x="18.33" y="0">o</tspan></text>
  <text class="cls-1" transform="translate(196.64 219.5) rotate(.45) scale(1.06 .97) skewX(-13.51)"><tspan x="0" y="0">ask</tspan></text>
</svg>